/* XPM */
static char * 1_xpm[] = {
"50 50 2 1",
" 	c None",
".	c #000000",
"                                                  ",
"                                                  ",
"                                                  ",
"                                                  ",
"                                                  ",
"                            ...                   ",
"                         ......                   ",
"                       ........                   ",
"                      .........                   ",
"                    ...........                   ",
"                   ............                   ",
"                 .............                    ",
"                ..............                    ",
"               ....... .......                    ",
"              .......  .......                    ",
"             .......   .......                    ",
"            .......    .......                    ",
"           .......     ......                     ",
"          .......     .......                     ",
"         .......      .......                     ",
"        .......       .......                     ",
"       ........       .......                     ",
"       .......        .......                     ",
"       ......        .......                      ",
"        ....         .......                      ",
"        ...          .......                      ",
"                     .......                      ",
"                     .......                      ",
"                     .......                      ",
"                     .......                      ",
"                    ........                      ",
"                    ........                      ",
"                    ........                      ",
"                    ........                      ",
"                   ........                       ",
"                   ........                       ",
"                   ........                       ",
"                   ........                       ",
"                   ........                       ",
"                   ........                       ",
"                  .........                       ",
"                  .........                       ",
"           .............................          ",
"          ..............................          ",
"          ..............................          ",
"          .............................           ",
"                                                  ",
"                                                  ",
"                                                  ",
"                                                  "};
