/* XPM */
static char * 3_xpm[] = {
"50 50 2 1",
" 	c None",
".	c #000000",
"                                                  ",
"                                                  ",
"                 ......                           ",
"                ...........                       ",
"               ..............                     ",
"             ..................                   ",
"            ....................                  ",
"            .....................                 ",
"           .......................                ",
"          .........   ............                ",
"          ......       ............               ",
"         .......        ...........               ",
"         .....           ..........               ",
"         .....           ..........               ",
"        .....             .........               ",
"        ....              .........               ",
"        ....              .........               ",
"        ...               ........                ",
"                         ........                 ",
"                         .......                  ",
"                        ........                  ",
"                     ..............               ",
"                     .................            ",
"                  .....................           ",
"                ........................          ",
"              ..........       ..........         ",
"              .......            ........         ",
"              ....                ........        ",
"                                   .......        ",
"                                    ......        ",
"                                    ......        ",
"                                     .....        ",
"                                     .....        ",
"                                      ....        ",
"                                      ....        ",
"      .....                           ....        ",
"      ......                          ...         ",
"      ........                       ....         ",
"        .......                     .....         ",
"         ........                  ......         ",
"          .........               .......         ",
"           ..........           ........          ",
"           .............       ........           ",
"             .........................            ",
"               .....................              ",
"                  ................                ",
"                                                  ",
"                                                  ",
"                                                  ",
"                                                  "};
