/* XPM */
static char * exit_xpm[] = {
"50 50 3 1",
" 	c None",
".	c #EFF60F",
"+	c #0F3AF6",
"                                                  ",
"                                                  ",
"                  ...............                 ",
"                 ..................               ",
"              ......................              ",
"             ........................             ",
"            ..........................            ",
"           ............................           ",
"          ...............................         ",
"         .................................        ",
"        ...................................       ",
"       .....................................      ",
"      .......................................     ",
"     ..........++.............................    ",
"    ..........++++....................+.......    ",
"    ..........+++++..................++++......   ",
"   ............+++++...............+++++++.....   ",
"   ............++++++............++++++++.......  ",
"   .............++++++.........+++++++++........  ",
"   ..............++++++.......++++++++..........  ",
"   ...............++++++.....++++++++...........  ",
"   ................+++++....++++++++............  ",
"   .................+++++..+++++++..............  ",
"   ..................++++++++++++...............  ",
"   ...................+++++++++.................  ",
"   ....................++++++...................  ",
"   ...................+++++++...................  ",
"   .................++++++++++..................  ",
"   ................+++++...++++.................  ",
"   ...............+++++.....++++................  ",
"    .............+++++.......++++...............  ",
"    ............+++++.........++++..............  ",
"     ..........+++++...........++++.............  ",
"     ........++++++.............++++...........   ",
"      ......++++++...............++++..........   ",
"      .....++++++.................++++........    ",
"       ....+++++...................++++.......    ",
"       .....+++.....................+++......     ",
"        .............................+.......     ",
"         ...................................      ",
"          ..................................      ",
"           ................................       ",
"            ..............................        ",
"             ............................         ",
"              ..........................          ",
"                .....................             ",
"                   ..............                 ",
"                                                  ",
"                                                  ",
"                                                  "};
