/* XPM */
static char *h1[] = {
/* columns rows colors chars-per-pixel */
"40 40 4 1 ",
"  c None",
". c black",
"X c #784B4B",
"o c white",
/* pixels */
"                                        ",
"                                        ",
"                                        ",
"                                        ",
"                                        ",
"                 ........               ",
"            ................            ",
"          ...................           ",
"        .........XXXXXXX.......         ",
"       ......XXXXXXXXXXXXXX.....        ",
"      .....XXXXXXXXXXXXXXXXXX....       ",
"     ....XXXXXXXXXXXXXXXXXXXXXX...      ",
"    ....XXXXXXXXXXXXXXXXXXXXXXXX...     ",
"   ....XXXXXXXXXXXXXXXXXXXXXXXXXX...    ",
"   ...XXXXXXXXXXXXXXXXXXXXXXXXXXX....   ",
"  ...XXXXXXXXXXXXXXXXXXXXXXXXXXXXX...   ",
" ...XXXXXXXXXXXXXXXXXXXXXXXXXXXXXXX..X  ",
" ..XXXXXXXX.....XXXXXXXXX....XXXXXXXX.  ",
" .XXXXXXXXX......XXXXXX......XXXXXXXX.X ",
" .XXXXXXXXXoooo...XXXXX...oooXXXXXXXXX. ",
"..XXXXXXXXXoooooo.XXXXX.ooooooXXXXXXXX. ",
"..XXXXXXXXoo..ooooXXXXXooo..ooXXXXXXXXX.",
"..XXXXXXXXooooooooXXXXXoooooooXXXXXXXXX.",
".XXXXXXXXXXooooooXXXXXXXooooooXXXXXXXXX.",
".XXXXXXXXXXXXXXXXXXXXXXXXXXXXXXXXXXXXX..",
".XXXXXXXXXXXXXXXXXXXXXXXXXXXXXXXXXXXXX..",
".XXXXXXXXXXXXXXXXXXXXXXXXXXXXXXXXXXXXX. ",
" XXXXXXXXXXXXXXXXXXXXXXXXXXXXXXXXXXXXX. ",
" .XXXXXXXX.XXXXXXXXXXXXXXXXXX.XXXXXXX.. ",
" .XXXXXXXX...XXXXXXXXXXXXXX...XXXXXXX.. ",
"  .XXXXXXXX................XXXXXXXXX..  ",
"  ..XXXXXXXXXXXXX.....XXXXXXXXXXXXXX..  ",
"  ..XXXXXXXXXXXXXXXXXXXXXXXXXXXXXXX..   ",
"   ..XXXXXXXXXXXXXXXXXXXXXXXXXXXXX...   ",
"   ....XXXXXXXXXXXXXXXXXXXXXXXXXX..     ",
"    .....XXXXXXXXXXXXXXXXXXXXXX...      ",
"       ....XXXXXXXXXXXXXXXXX.....       ",
"        ......XXXXXXXXXXX......         ",
"           ..................           ",
"              ............              "
};
