/* XPM */
static char *h2[] = {
/* columns rows colors chars-per-pixel */
"40 40 4 1 ",
"  c None",
". c black",
"X c #784B4B",
"o c white",
/* pixels */
"                                        ",
"                                        ",
"                                        ",
"                .....                   ",
"            ..............              ",
"          .................             ",
"        ........XXXXXX.......           ",
"       .....XXXXXXXXXXXXX.......        ",
"      ....XXXXXXXXXXXXXXXXX......       ",
"     ...XXXXXXXXXXXXXXXXXXXXX.....      ",
"    ...XXXXXXXXXXXXXXXXXXXXXXX.....     ",
"   ....XXXXXXXXXXXXXXXXXXXXXXXXX....    ",
"   ...XXXXXXXXXXXXXXXXXXXXXXXXXXXX..    ",
"  ...XXXXXXXXXXXXXXXXXXXXXXXXXXXXXX..   ",
"  ...XXXXXXXXXXXXXXXXXXXXXXXXXXXXXX...  ",
" ....XXXXXXXXXXXXXXXXXXXXXXXXXXXXXXX..  ",
" ...XXXXXXXXXXXXXXXXXXXXXXXXXXXXXXXX... ",
" ...XXXXXXX.....XXXXXXXXX....XXXXXXXX.. ",
" ..XXXXXXXX......XXXXXX......XXXXXXXX.. ",
" ..XXXXXXXXoooo...XXXXX...oooXXXXXXXX.. ",
"...XXXXXXXXoooooo.XXXXX.ooooooXXXXXXX.. ",
"...XXXXXXXoo.oooooXXXXXooo..ooXXXXXXXX. ",
"..XXXXXXXXooooooooXXXXXoooooooXXXXXXXX..",
"..XXXXXXXXXooooooXXXXXXXooooooXXXXXXXX. ",
"..XXXXXXXXXXXXXXXXXXXXXXXXXXXXXXXXXXX.. ",
"...XXXXXXXXXXXXXXXXXXXXXXXXXXXXXXXXXX.. ",
"...XXXXXXXXXXXXXXXXXXXXXXXXXXXXXXXXXX.. ",
" ..XXXXXXXXXXXXXXXXXXXXXXXXXXXXXXXXX..  ",
" ...XXXXXX.XXXXXXXXXXXXXXXXXX.XXXXX...  ",
" ...XXXXXX...XXXXXXXXXXXXXX...XXXX...   ",
"  ...XXXXXX................XXXXXXX..    ",
"  ....XXXXXXXXXXX.....XXXXXXXXXXX...    ",
"   ....XXXXXXXXXXXXXXXXXXXXXXXXX...     ",
"    ....XXXXXXXXXXXXXXXXXXXXXXX...      ",
"      ....XXXXXXXXXXXXXXXXXXXX...       ",
"      ......XXXXXXXXXXXXXXXXX...        ",
"         .....XXXXXXXXXXXXX....         ",
"           .......XXXXX.......          ",
"            .................           ",
"                ...........             "
};
