/* XPM */
static char *h3[] = {
/* columns rows colors chars-per-pixel */
"40 40 4 1 ",
"  c None",
". c black",
"X c #784B4B",
"o c white",
/* pixels */
"                 ......                 ",
"               .........                ",
"             .............              ",
"            ................            ",
"          .....XXXXXXXX......           ",
"         ....XXXXXXXXXXXXX....          ",
"        ....XXXXXXXXXXXXXXXX...         ",
"       ....XXXXXXXXXXXXXXXXXX...        ",
"      ....XXXXXXXXXXXXXXXXXXXX...       ",
"     ....XXXXXXXXXXXXXXXXXXXXXX...      ",
"    ...XXXXXXXXXXXXXXXXXXXXXXXXX..      ",
"   ...XXXXXXXXXXXXXXXXXXXXXXXXXXX..     ",
"   ...XXXXXXXXXXXXXXXXXXXXXXXXXXX...    ",
"  ...XXXXXXXXXXXXXXXXXXXXXXXXXXXXX..    ",
"  ..XXXXXXXXXXXXXXXXXXXXXXXXXXXXXX...   ",
" ...XXXXXXXXXXXXXXXXXXXXXXXXXXXXXXX..   ",
" ..XXXXXXXXXXXXXXXXXXXXXXXXXXXXXXXX...  ",
" ..XXXXXXXX.....XXXXXXXXX....XXXXXX...  ",
" ..XXXXXXXX......XXXXXX......XXXXXXX... ",
" .XXXXXXXXXoooo...XXXXX...oooXXXXXXX... ",
"..XXXXXXXXXoooooo.XXXXX.ooooooXXXXXX... ",
"..XXXXXXXXoo..ooooXXXXXooo..ooXXXXXX... ",
"..XXXXXXXXooooooooXXXXXoooooooXXXXXX....",
"..XXXXXXXXXooooooXXXXXXXooooooXXXXXX....",
"..XXXXXXXXXXXXXXXXXXXXXXXXXXXXXXXXXX... ",
"..XXXXXXXXXXXXXXXXXXXXXXXXXXXXXXXXX.... ",
"..XXXXXXXXXXXXXXXXXXXXXXXXXXXXXXXXX.... ",
" ..XXXXXXXXXXXXXXXXXXXXXXXXXXXXXXXX...  ",
" ...XXXXXX.XXXXXXXXXXXXXXXXXX.XXXX....  ",
" ....XXXXX...XXXXXXXXXXXXXX...XXX....   ",
"  ....XXXXX................XXXXXX...    ",
"   ...XXXXXXXXXXX.....XXXXXXXXXX...     ",
"   ....XXXXXXXXXXXXXXXXXXXXXXXX....     ",
"    ....XXXXXXXXXXXXXXXXXXXXXX....      ",
"     .....XXXXXXXXXXXXXXXXXX.....       ",
"      ......XXXXXXXXXXXXXXX.....        ",
"       ........XXXXXXXXX......          ",
"         ....................           ",
"           ................             ",
"             ...........                "
};
