/* XPM */
static char *h4[] = {
/* columns rows colors chars-per-pixel */
"40 40 4 1 ",
"  c None",
". c black",
"X c #784B4B",
"o c white",
/* pixels */
"                                        ",
"                                        ",
"                                        ",
"                                        ",
"            XXXXXXX                     ",
"          XX.......X                    ",
"         X...............               ",
"        X...................            ",
"       .......................          ",
"      ......XXXXXXXXXXXXX......         ",
"     ....XXXXXXXXXXXXXXXXXX......       ",
"    ...XXXXXXXXXXXXXXXXXXXXXX.....      ",
"   ...XXXXXXXXXXXXXXXXXXXXXXXXX....     ",
"  ....XXXXXXXXXXXXXXXXXXXXXXXXXX....    ",
"  ...XXXXXXXXXXXXXXXXXXXXXXXXXXXX....   ",
"  ..XXXXXXXXXXXXXXXXXXXXXXXXXXXXXX...   ",
" ...XXXXXXXXXXXXXXXXXXXXXXXXXXXXXX....  ",
"....XXXXXXXXXXXXXXXXXXX......XXXXXX...  ",
"...XXXXXXXXX......XXXXX.XXXX.XXXXXXX... ",
"...XXXXXXXXXXoooXXXXXXXXoooXXXXXXXXX... ",
"...XXXXXXXXXooo..XXXXXXo..ooXXXXXXXX....",
" ..XXXXXXXXoooo..oXXXXXo..oooXXXXXXXX...",
" ..XXXXXXXXXooooooXXXXXooooooXXXXXXXX...",
" ..XXXXXXXXXXooooXXXXXXXooooXXXXXXXXX...",
" ..XXXXXXXXXXXXXXXXXXXXXXXXXXXXXXXXXX...",
" ..XXXXXXXXXXXXXXXXXXXXXXXXXXXXXXXXXX...",
" ..XXXXXXXXXXXXXXXXXXXXXXXXXXXXXXXXXX...",
"  ..XXXXXXXXXXXXXXXXXXXXXXXXXXXXXXXXX.. ",
"  ..XXXXXXXXXXXXXXXXXXXXXXXXXXXXXXXX... ",
"  ...XXXXXXXXXX............XXXXXXXX.... ",
"  ....XXXXXXXX..XXXXXXXXXX..XXXXXX....  ",
"   ...XXXXXXXXXXXXXXXXXXXXXXXXXXXX....  ",
"   ....XXXXXXXXXXXXXXXXXXXXXXXXXX....   ",
"    .....XXXXXXXXXXXXXXXXXXXXXXXX...    ",
"     ....XXXXXXXXXXXXXXXXXXXXXXX...     ",
"       ...XXXXXXXXXXXXXXXXXXX......     ",
"        ...XXXXXXX....XXXXX.......      ",
"          ......................        ",
"            .................           ",
"             ..............             "
};
