/* XPM */
static char * h4_xpm[] = {
"40 40 4 1",
" 	c None",
".	c #000000",
"+	c #D6C0C0",
"@	c #FFFFFF",
"....              ......             ...",
"....           ...........          ....",
"...          ................       ... ",
" ..        ....................     ... ",
" .       .......................     .  ",
"        ........++++++++++++......   .  ",
"       ......+++++++++++++++++.....     ",
"     .......++++++++++++++++++++....    ",
"    ......+++++++++++++++++++++++....   ",
"   ......+++++++++++++++++++++++++...   ",
"  ......+++++++++++++++++++++++++++...  ",
"  ....++++.........++++++........++.... ",
" ....++++...........++++...........+....",
".....+++++++@@@@++++++++++@@@++++++++...",
"....+++++++@@@@@@++++++++@@@@@@++++++...",
"...+++++++@@@@@@@++++++++@@@@@@@++++++..",
"...+++++++@@@@@@@@++++++@@@@@@@@++++++..",
"..++++++++@@@@@..@++++++@..@@@@@++++++..",
"..++++++++@@@@@..@++++++@..@@@@@++++++..",
"..++++++++@@@@@@@@++++++@@@@@@@@++++++..",
"..++++++++@@@@@@@@++++++@@@@@@@+++++++..",
"..+++++++++@@@@@@@+++++++@@@@@@+++++++..",
"..++++++++++@@@@@+++++++++@@@@++++++++..",
"..+++++++++++++++++++++++++++++++++++...",
"..+++++++++++++++++++++++++++++++++++...",
"..++++++++++++++++++++++++++++++++++....",
"...++++++++++++++++++++++++++++++++.....",
"...+++++++++++++++++++++++++++++++..... ",
"....++++++.....................+++....  ",
" ...++++++.....+++++++++++.....++.....  ",
" ....++++++++....++++++++....++++....   ",
"  ....++++++++.............+++++....    ",
"   ....+++++++++++++++++++++++++....    ",
"    ....++++++++++++++++++++++....      ",
"     .....++++++++++++++++++......      ",
"  ..   .....+++++++++++..........       ",
" ....   .....++++++.............     ...",
" ...     ......................    .....",
"...       ...................        ...",
"..           ............             .."};
