/* XPM */
static char * item_xpm[] = {
"50 50 3 1",
" 	c None",
".	c #000000",
"+	c #802AC9",
"                                      ...         ",
"                               ............       ",
"                             ...............      ",
"         ...........       ............+.....     ",
"       ..............    .......++++++++++....    ",
"      ................  ......++++++++++++++...   ",
"    .....++++++++++.........+++++++++++++++++...  ",
"   ....++++++++++++++.....++++++++++++++++++++... ",
"   ...++++++++++++++++...++++++++++..++++++++++...",
"  ...+++++++++++++++++...+++++++++......+++++++...",
"  ...+++++++....++++++...++++++++........++++++...",
" ....++++........+++++...+++++++...    ...++++++..",
" ...++++..... ....++++...++++++...      ..++++++..",
" ...++++...    ...++++...++++++...      ..++++++..",
" ...++++..     ...++++...++++++...     ...++++++..",
" ...++++..      ..+++....++++++....   ...+++++++..",
" ...++++..      ..+++...++++++++........++++++++..",
" ....+++...    ...+++...+++++++++......+++++++++..",
"  ...+++...    ...+++....+++++++++++++++++++++++..",
"  ...+++....  ...+++++..++++++++++++++++++++++++..",
"  ...++++.......+++++++++++++++++++++++++++++++...",
"  ...++++++....++++++++++++++++++++++++++++++++...",
"  ....+++++++++++++++++++++.........++++++++..... ",
"   ...++++++++++++.+++++++..............+.......  ",
"   ...+++++++++++...+++++++....................   ",
"   ....++++++++.....++++++++++++++++.........     ",
"    ....+++++......++++++++++++++++++++......     ",
"     ............+++++++.+++++++++++++++++...     ",
"      ..........+++++++...+++++++++++++++++...    ",
"      ........+++++++++...++++++++++++++++++...   ",
"     ....++++++++++++++...++++++++......+++++...  ",
"    ....++++...+++++++....+++++++........++++...  ",
"   ...+++++.......++++...++++++++.... ...++++.... ",
"  ...+++++...  ....+++...+++++++...    ...++++... ",
"  ...++++...     ..+++...+++++++...     ..++++... ",
" ....+++...       ..++...+++++++...    ...++++... ",
" ...++++..        ..++...+++++++...    ...++++... ",
" ...++++..       ...+....+++++++...    ...++++... ",
" ...++++..      ....+...++++++++....  ...+++++... ",
" ...+++++..   .....++....++++++++........+++++... ",
" ...++++++.......++++.....++++++++......++++++... ",
" ....++++++....+++++... ...+++++++++...++++++.... ",
"  ...++++++++++++++...   ...++++++++++++++++....  ",
"   ...+++++++++++....     ....++++++++++++.....   ",
"    ......+++++......     ....................    ",
"     ...............       ..................     ",
"      ............            .............       ",
"         ......                                   ",
"                                                  ",
"                                                  "};
