/* XPM */
static char * mob_xpm[] = {
"20 20 3 1",
" 	c None",
".	c #AB4E4E",
"+	c #BD9292",
"     ..........     ",
"    ............    ",
"   ....++++++....   ",
"  ....++++++++....  ",
" ....++++++++++.... ",
"....++++++++++++....",
"...++++++++++++++...",
"..++++++++++++++++..",
"..++++++++++++++++..",
"..++++++++++++++++..",
"..++++++++++++++++..",
"..++++++++++++++++..",
"..++++++++++++++++..",
"...++++++++++++++...",
"....++++++++++++... ",
" ....++++++++++...  ",
"  ....++++++++...   ",
"   .....+++++...    ",
"    ...........     ",
"     .........      "};
