/* XPM */
static char * sprite_face_xpm[] = {
"200 50 2 1",
" 	c #FFFFFF",
".	c #363131",
"                                                                                                                                                                                                        ",
"                                                                                                                                                                                                        ",
"                                                                                                                                                                                                        ",
"                                                                                                                                                                                                        ",
"                                                                                                                                                                                                        ",
"                                .....                                                                                                                                                                   ",
"                                ......                                                                                                                                                                  ",
"                               .......                                                                                                                                                                  ",
"                              ........                                                                                                                                                                  ",
"                             .........                              ............                                                                                                                        ",
"                             ..... ...                         .....................                                                                                                                    ",
"                            .....  ...                      .........................                                                                                                                   ",
"                          ......   ...                      ...........       ........                                                                                 ...                              ",
"                          ......  ....                 ...........                ....                       ....................                                      ...                              ",
"                         ......   ....                .........                    ....                    ........................                                    ...                              ",
"                        .....    .....              ...........                    .....                   ..........................                                  ...                              ",
"                        .....    ....              ......                           .....                  .....               ........                                ...                              ",
"                       ....      ....            .......        ......               ....                                        ......                                ...                              ",
"                      .....      ...             .....          .......               ...                                          ....                                ...                              ",
"                     .....       ...             ....           .............         ...                                           ....                               ...                              ",
"                   ......       ....             ...           ...............        ....                                          ....                               ...                              ",
"                  ......        ....             ...          .....  ..........       ....                                           ...                               ...                              ",
"                 ......         ....                          .....       .....        ...                                           ...                               ...                              ",
"                .....           ...                           ...           ...        ...                               ................                              ...           ....               ",
"               .....           ....                           ...           ...        ...                               ................                              ...           ....               ",
"              .....           .....                                        ....       ....                               ................                              .....         ....               ",
"             .....           ......                                        ....       ....                                .......                                      .................                ",
"            .....            ....                                          ....       ....                                 .......                                     ......................           ",
"           .....             ...                                          ....       ....                                   ........                                      ....................          ",
"           .....             ...                                         .....       ....                                      ......                                              ...........          ",
"           ....             ....                                        ......       ...                                        .....                                              .....  ....          ",
"                            ....                                       ......        ...                                          ....                                             ...                  ",
"                            ....                                      ..........................                                  ......                                          ....                  ",
"                            ...                                      .............................                                 ......                                         ....                  ",
"                            ...                                     ..............................                                  ......                                        ....                  ",
"                            ...                                    ..........      ....      .....                                    ....                                        ...                   ",
"                            ...                                    ........        ....                                                ....                                       ...                   ",
"                                                                   .....          ....                                                 ....                                       ...                   ",
"                                                                                 .....                                    .................                                       ...                   ",
"                                                                                .....                                   ...................                                                             ",
"                                                                               .....                                    ..................                                                              ",
"                                                                              .....                                     .....                                                                           ",
"                                                                              ....                                                                                                                      ",
"                                                                            .....                                                                                                                       ",
"                                                                           ......                                                                                                                       ",
"                                                                           .....                                                                                                                        ",
"                                                                       .......                                                                                                                          ",
"                                                                      ........             ..............                                                                                               ",
"                                                                  ............      .....................                                                                                               ",
"                                                               ..........         .......................                                                                                               "};
