/* XPM */
static char * wall_xpm[] = {
"50 50 7 1",
" 	c #619194",
".	c #9F117F",
"+	c #0900AD",
"@	c #DFE500",
"#	c #00E5E1",
"$	c #CCD741",
"%	c #41D753",
"  ........++++++++++++++++@@@@@@@@@@@@@@@@@@@+++  ",
"   .......++++++++++++++++@@@@@@@@@@@@@@@@@@++++  ",
"  ........++++++++++++++++@@@@@@@@@@@@@@@@+++++   ",
"  ........++++++++++++++++@@@@@@@@@@@@@@+++++++   ",
" .........+++++++++++++++++@@@@@@@@@@@@++++++++   ",
"#.........++++++++++++++++++@@@@@@@@@@+++++++++ ##",
"##........+++++++++++++++++++++@@@@@@++++++++  ###",
"##.......$$++++++++++++++%%%%%%%%%%+++++++    ####",
"###.....$$$$++++++++++++%%%%%%%%%%%%++++      ####",
"####....$$$$$$+++++++++%%%%%%%%%%%%%%+       #####",
"#####..$$$$$$$$$+ ++++%%%%%%%%%%%%%%%       ######",
"#####..$$$$$$$$$       %%%%%%%%%%%%%        ######",
"######.$$$$$$$$$        %%%%%%%%%%%%%      #######",
"######.$$$$$$$$$        %%%%%%%%%%%%%%    ########",
"#######$$$$$$$$$        %%%%%%%%%%%%%%    ########",
"#######$$$$$$$$         %%%%%%%%%%%%%%    ########",
"####### $$$  $$          %%%%%%%%%%%%%     #######",
"######   $                %%%%%%%%%%%%     #######",
"######                    %%%%%%%%%%%       ######",
"######                     %%%%%%%%%        ######",
"######                     ++%%%             #####",
"######                    +++++         $$   #####",
"######                  ++++++++       $$$$   ####",
"######                 ++++++++++     $$$$$$   ###",
"######               +++++++++++++$$$$$$$$$$   ###",
"#####               +++++++++++++$$$$$$$$$$$$  ###",
"#####             +++++++++++++++$$$$$$$$$$$$$  ##",
"####..           ++++++++++++++++$$$$$$$$$$$$$  ##",
"###....          +++++++++++++@@@@$$$$$$$$$$$$  ##",
"#.......         ++++++++++++@@@@@@$$$$$$$$$$$$ ##",
"#.......         ++++++++++++@@@@@@+$$$$$$$$$$$  #",
".........        ++++++++++++@@@@@@+++$$$$$  $    ",
".........        ++++++++++++@@@@@@@+++++$        ",
".........       +++++++++++++@@@@@@@++++++        ",
"..........      +++++++++++++@@@@@@@@+++++        ",
"..........      +++++++++++++@@@@@@@@@+++++       ",
"..........      ++++++++++++@@@@@@@@@@@++++       ",
" .........      ++++++++++++@@@@@@@@@@@+++++      ",
"  ........     +++++++++++++@@@@@@@@@@@@+++++     ",
"  ........     ++++++++++++@@@@@@@@@@@@@@+++++    ",
"   .......    +++++++++++++@@@@@@@@@@@@@@++++++   ",
"   .......    +++++++++++++@@@@@@@@@@@@@@@+++++   ",
"   .......    +++++++++++++@@@@@@@@@@@@@@@++++++  ",
"   ......    ++++++++++++++@@@@@@@@@@@@@@@@+++++  ",
"   ......    +++++++++++++@@@@@@@@@@@@@@@@@+++++  ",
"   ......   ++++++++++++++@@@@@@@@@@@@@@@@@@++++  ",
"   ......   ++++++++++++++@@@@@@@@@@@@@@@@@@+++++ ",
"   ......   ++++++++++++++@@@@@@@@@@@@@@@@@@@+++  ",
"   ......   ++++++++++++++@@@@@@@@@@@@@@@@@@@++   ",
"  .......    +++++++++++++@@@@@@@@@@@@@@@@@@@++   "};
