/* XPM */
static char * face3_xpm[] = {
"20 20 3 1",
" 	c None",
".	c #000000",
"+	c #EC2424",
"                    ",
"      ....          ",
"      .+++.++       ",
"    ++.+++.++++     ",
"  ...............   ",
"  .++........++.    ",
"  .++........++.+   ",
"  ...++...+.....+   ",
"  .+.++...+.+..++   ",
"  .+.++...+.++.++   ",
"  .+.++++++.++.++   ",
"  .+........++.++   ",
"  .+.+++.++.++.++   ",
"  ...+++.++....++   ",
"   ..+++.++.++++    ",
"   +.+++.++.++++    ",
"    .+++.++...+     ",
"    . ++..+++.      ",
"  ...   ..   .      ",
"   ...........      "};
