/* XPM */
static char * ground_xpm[] = {
"50 50 7 1",
" 	c #FFFFFF",
".	c #0A0707",
"+	c #655D5D",
"@	c #1B1A1A",
"#	c #363131",
"$	c #251B1B",
"%	c #958686",
" ..++++++...@@@@...............+++++++++++++++++++",
"..+++++++...@@@@...............+++++++++++++++++++",
"+++++++++....@@@...............+++++++++++++++++++",
"+++++++++....@@@@.............++++++++++++++++++++",
"+++++++++....@@@@#...........+++++++++++++++++++++",
"++++++++...##@@@@###.....$$$..+++++$$$++++++++++++",
"++++++++.#####@@@@####...$$$...++++$$$++++++++++++",
"+++++++.######@@@@#####.........+++$$$++++++++++++",
"++++++..######@@@@@####..........+++++++++++++++++",
"++++++.########@@@@#####.........++++++.....++++++",
"++++++.#########@@@#####..........+++.........++++",
"+++++.###################.......................++",
"......###################...%%%%%%.....#####.....+",
"......###################...%%%%%%%..########%%%%+",
"%%....###################...%%%%%%%%#######%%%%%%%",
"%%....###################...%%%%%%%%#######%%%%%%%",
"%%.....#################....%%%%%%%%#######%%%%%%%",
"%%.....#################.....%%%%%%%########%%%%%%",
"%%......###############..........###########%%%%%%",
"%%......###############.........#############%%%%%",
".........#############..........#############%%%%%",
".......#############............##################",
".....#############..............###########$$$####",
"@@@.###############.............###########$$$####",
"@@@.###############..............##########$$$@@@@",
"@@@@################......$$$....##########@@@@@@@",
"@@@@@###############......$$$.....#######@@@@@@@@@",
"@@@@@################.....$$$.....#######@@@@@@@@@",
"@@@@@################..............######@@@@@@@@@",
"@@@@@################................####@@@@@@@@@",
"@@@@@################.........#####...+##@@@@@@@@@",
"@@@@#################.......#########.+++@@@@@@@@+",
"@@@@################......#############++@@@@@@@@+",
"@@@#################.....###############++@@@@@@@+",
"@@@.###############......###############+++@@@@@@+",
"@...###############.....#################+++@@@@@+",
".....#############......#################+++++++++",
".......#########.......###################++++++++",
".........#####.........###################++++++++",
".......................###################++++++++",
"........%%%............###################++++++++",
"........%%%%%%.........###################++++++++",
"........%%%%%%%%........##############$$$+++++++++",
".++++++..%%%%%%%........##############$$$+++++++++",
"++++++++++%%%%%%.........#############$$$+++++++++",
"++++++++++%%.@@@@%%......###############++++++++++",
"++++++++++...@@@@%%.......#############+++++++++++",
"++++++++++...@@@@%%.........#########++++++$$$++++",
"+++++++++.....@@@.............+++##++++++++$$$++++",
"+++++++++.....@@@.............+++++++++++++$$$++++"};
