/* XPM */
static char * hero_face_xpm[] = {
"50 50 3 1",
" 	c None",
".	c #000000",
"+	c #FFFFFF",
"                                                  ",
"                                                  ",
"                                                  ",
"                                                  ",
"                                                  ",
"                                                  ",
"                    ...........                   ",
"                 .................                ",
"                ......+++++++......               ",
"              .....+++++++++++++.....             ",
"             .....+++++++++++++++.....            ",
"            ....+++++++++++++++++++....           ",
"            ...+++++++++++++++++++++...           ",
"           ...+++++++++++++++++++++++...          ",
"          ...++++++++++++++++++++++++....         ",
"         ...++++++++++++++++++++++++++...         ",
"         ...+++.....++++++++++.....++++..         ",
"        ...++++.....++++++++++.....++++...  +     ",
"       ...+++++.....++++++++++.....++++... ++     ",
"       ...+++++.....++++++++++.....+++++..+       ",
"       ...+++++.....++++++++++.....+++++...       ",
"      ...+++++++++++++++++++++++++++++++...       ",
"      ...++++++++++++++++++++++++++++++++..       ",
"      ...++++++++++++++++++++++++++++++++..       ",
"      ...++++++++++++++++++++++++++++++++..       ",
"      ...++++++++++++++++++++++++++++++++..       ",
"      ...++++++++++++++++++++++++++++++++..       ",
"      ...++++++++++++++++++++++++++++++++..       ",
"       ...++++++++++++++...........++++++..       ",
"       ...+++++....................+++++..        ",
"       ...+++++....................+++++..        ",
"        ...++++....................+++++..        ",
"         ..++++....................++++..         ",
"         ...+++..............+++++++++...         ",
"         ....+++++++++++++++++++++++++...         ",
"          ...++++++++++++++++++++++++...          ",
"           ...++++++++++++++++++++++...           ",
"           ....+++++++++++++++++++.....           ",
"            .....++++++++++++++++.....            ",
"             .....+++++++++++++......             ",
"               ......+++++++.......               ",
"                ..................                ",
"                  .............                   ",
"                     .......                      ",
"                                                  ",
"                                                  ",
"                                                  ",
"                                                  ",
"                                                  ",
"                                                  "};
