/* XPM */
static char * mob_xpm[] = {
"35 35 2 1",
" 	c #F32E2E",
".	c #000000",
"                                   ",
"                                   ",
"                                   ",
"                                   ",
"                                   ",
"            .                      ",
"                                   ",
"                  .....            ",
"       ...       .......           ",
"      ....................         ",
"      ....................         ",
"     ......................        ",
"     .......................       ",
"     .......................       ",
"     .......................       ",
"     .......................       ",
"     .......................       ",
"     .......................       ",
"      ......................       ",
"        ....................       ",
"          ..................       ",
"          ....................     ",
"          ....................     ",
"          ....................     ",
"         ....................      ",
"         ...................       ",
"         ...................       ",
"          ................         ",
"          .           ...          ",
"                      ..           ",
"                                   ",
"                                   ",
"                                   ",
"                                   ",
"                                   "};
