/* XPM */
static char * sprite3_xpm[] = {
"40 40 4 1",
" 	c None",
".	c #000000",
"+	c #BD9292",
"@	c #FFFFFF",
"     .... ...........................   ",
"      ...........++++++++...........    ",
"  .. ..........++++++++++++.........    ",
"   . .......+++++++++++++++++.......    ",
"   .. ....++++++++++++++++++++.....  ...",
"  ........++++++++++++++++++++++... ... ",
"   ......+++++++++++++++++++++++++...   ",
"  ......++++++....++++++++++++++++...   ",
"  ......++++..+++++++.......++++++...   ",
"  .....++++.+++++++++++++++..+++++....  ",
"  ....++++.+++++++++++++++++.++++++...  ",
"  ...++++++++++++++++++++++++.+++++.... ",
" ...++++++++++@.@+++++@.@+++++++++++... ",
" ...++++++++++...+++++...+++++++++++... ",
"...+++++++++++@.@+++++@.@+++++++++++... ",
"...+++++++++++++++++++++++++++++++++....",
"...+++++++++++++++++++++++++++++++++....",
"...+++++++++++++++++++++++++++++++++....",
"...+++++++++++++++.+.+++++++++++++++....",
"...+++++++++++++++++++++++++++++++++....",
"...+++++++++++++++++++++++++++++++++....",
"...+++++++++++++++++++++++++++++++++... ",
" ...++++++++++++++++++++++++++++++++... ",
" ....+++++++++++++++++++++++++++++++..  ",
"  ...++++++++++++++++++++++++++++++..   ",
"  ....+++++++++++.......++++++++++..    ",
"   ...+++++++++++++++++++++++++++..     ",
"   .....++++++++++++++++++++++++...     ",
"    .....+++++++++++++++++++++.... +    ",
"     .......++++++++++++++++......      ",
"       ...........++++++.........       ",
"         ......................         ",
"           ..................+          ",
"               .............            ",
"                                        ",
"                                        ",
"                                        ",
"                                        ",
"                                        ",
"                                        "};
