/* XPM */
static char * sprite_hero_xpm[] = {
"100 50 2 1",
" 	c #000000",
".	c #FFFFFF",
"                                                                                                    ",
"                                                                                                    ",
"                                                                                                    ",
"                                                                                                    ",
"                                                                                                    ",
"                                                                                                    ",
"                                                                                                    ",
"                                                                                                    ",
"                                                                                                    ",
"                       .......                                         .......                      ",
"                    .............                                   .............                   ",
"                   ...............                                 ...............                  ",
"                 ...................                             ...................                ",
"                .....................                           .....................               ",
"               .......................                         .......................              ",
"              ........................                        ........................              ",
"             ..........................                      ..........................             ",
"             ...     ..........     ....                     ...     ..........     ....            ",
"            ....     ..........     ....     .              ....     ..........     ....     .      ",
"           .....     ..........     ....    ..             .....     ..........     ....    ..      ",
"           .....     ..........     .....  .               .....     ..........     .....  .        ",
"           .....     ..........     .....                  .....     ..........     .....           ",
"          ...........           .........                 ...............................           ",
"          ..........             .........                ................................          ",
"          .........      .....    ........                ................................          ",
"          .........     .......    .......                ................................          ",
"          .......   ............   .......                ................................          ",
"          .......   ............    ......                ................................          ",
"          .......   ............... ......                ................................          ",
"           ......   ............... ......                 ...............................          ",
"           .....    ............... .....                  ..............................           ",
"           .....    ..............  .....                  ..............................           ",
"            ....    ..............  .....                   .............................           ",
"            ....    ..............  ....                    ............................            ",
"             ...      ...........   ...                      ..........................             ",
"              ...      ..........  ....                       .........................             ",
"              .....     .........  ...                        ........................              ",
"               ......   ........  ...                          ......................               ",
"                .......          ..                             ...................                 ",
"                  ................                                ................                  ",
"                   .............                                   .............                    ",
"                      .......                                         .......                       ",
"                                                                                                    ",
"                                                                                                    ",
"                                                                                                    ",
"                                                                                                    ",
"                                                                                                    ",
"                                                                                                    ",
"                                                                                                    ",
"                                                                                                    "};
