/* XPM */
static char * sprite3_xpm[] = {
"50 50 2 1",
" 	c #FFFFFF",
".	c #363131",
"                                                  ",
"                                                  ",
"                                                  ",
"                                                  ",
"                             ....                 ",
"                            .....                 ",
"                           ......                 ",
"          ....         ..........                 ",
"          .....        ..........                 ",
"          ......     .............                ",
"          ......    ....... .......               ",
"          ....... ........   .......              ",
"    ...    ..............    ........             ",
"    ...     ............     .........            ",
"    ...      ..........      ...  .....           ",
"    ...       ..........     ...  .....           ",
"    ....     ...........     ...    ....          ",
"    ....    ....... ....     ...    ....          ",
"     ....   ........ ...     ...     ...          ",
"     ..... ......... ....   ....    .....         ",
"      .......... ........   ....    .....         ",
"       ......... .........  ....   .......        ",
"        .......   .............    ........       ",
"         ...        ............   ... .....      ",
"         ....        ............  ...  ....      ",
"         ......      ...  ........ ...   ....     ",
"          .....      ...    ..........   ....     ",
"           .....     ...    ..........    ...     ",
"            .....    ...   .... ......    ...     ",
"             .....   ...  .....           ...     ",
"              ....   ...  .....          ....     ",
"               ..... ...  ...           .....     ",
"               ..... ...  ...         .......     ",
"                .... ...  ...       ........      ",
"                     ... ....      ........       ",
"                     ... ....     .......         ",
"                         ....   ......            ",
"                         ... .........            ",
"                .....    ............             ",
"               ......   ...........               ",
"              ..................                  ",
"              ..............                      ",
"             ..............                       ",
"             ...........                          ",
"             ........                             ",
"             ....                                 ",
"                                                  ",
"                                                  ",
"                                                  ",
"                                                  "};
