/* XPM */
static char * sprite1_xpm[] = {
"50 50 3 1",
" 	c None",
".	c #363131",
"+	c #000000",
"                                                  ",
" ...                                              ",
" ...                                              ",
" ...                 +++++++                      ",
"           ...   ..++++++++++++            +++    ",
"           ..+++++++++++++++++++++         +++    ",
"           ..+++++++++++.++++++++++        +++    ",
"    +++.    .++++++++       .+++++++       ...    ",
"    +++.    .+++++++           .+++++             ",
"    +++.   .++++++              .+++++..          ",
"     ...  ..+++++                .++++++          ",
"          .++++                   ++++++          ",
"         .+++++    +++      +++    +++++          ",
"         .++++     +++      +++    ++++           ",
"         .++++     +++      +++     +++           ",
"         .+++               +++     +++           ",
"         .+++                       +++           ",
"         .+++                       +++           ",
"         .+++                       +++           ",
"         .+++                      ++++           ",
"         .+++         .++++++++++++++++           ",
"         .+++.      +++++++++++++++++++           ",
"          +++.     +++++++++++++++++++.           ",
"          +++..    ++++++.      +++++..           ",
"          ++++.   +++++          ++++..           ",
"          ++++.   ++++.         +++++.            ",
"          ++++..  +++           ++++..            ",
"           +++..                ++++..            ",
"           ++++.                ++++.             ",
"           ++++..               ++++.             ",
"            ++++.               ++++              ",
"            ++++.               .+++              ",
"            ++++.               .++++             ",
"             +++.     ...        ++++             ",
"             +++.     ...        .+++             ",
"             +++.     .+++       .+++             ",
"             +++.     .+++       .++++            ",
"             +++.     .+++        ++++            ",
"             +++.     .+++        .+++            ",
"             +++.     .+++.       .+++            ",
"             +++.     .+++.       .++++           ",
"             +++.     .+++.       .++++           ",
"             +++.      +++.        .+++           ",
"            ++++++++++++++......  +++++           ",
"           ++++++++++++++++++++++++++++           ",
"           ++++++++++++++++++++++++++++           ",
"           ++++++++    ++++++++++++++.            ",
"            +++                                   ",
"                                                  ",
"                                                  "};
