/* XPM */
static char * wall_xpm[] = {
"50 50 8 1",
" 	c #A9A9A9",
".	c #727272",
"+	c #FFFFFF",
"@	c #E8E8E8",
"#	c #757575",
"$	c #373737",
"%	c #000000",
"&	c #A3A3A3",
"         ....+@@@@@#$$$$$$$    $$$$$$$$$@@@@@@$$$$",
" $$$$$$  ..#########$$$$$$$$$  $$$$$$$$$@@@@@@$$$$",
" $$$$$$  $$$$$###  #$$$$$$$$$$$$$$$$$$$$##@@@@$$$$",
" $$$$$$@@$$$$$###   #$$$$$$$$$$$$$$$$$$$######$$$$",
" $$$$$$@@$$$$$###   ##$$$$$$$$$$$$$$$$$$@@    $$$$",
" $$$$$$@@$$$$$###   ###$$$$$$$$$$$$$ @@@@@@   $$$$",
"       @@$$$$$ #####+    $$$$$$$$$$$$$@@@@@    $$$",
"       @@@@@%  ######     &$$$$$$$$$$$@@@@@@      ",
"      @@@@@@@@@@#######   &&$$$$$$$$$$@@@@@@      ",
"$$$$$@@@@@@@@@@@#######       $$$$$$$$@@@@@@      ",
"$$$$$@@@@@@@@@@@#######...    &&$$$$$$@@@@@@      ",
"$$$$$@$$$$$@@@@@&&&####.......&&&&&   @@@@@@      ",
"$$$$$@$$$$$@@@@@&&&####.......&&&&&...@@@@@$$$$$&&",
"$$$$$@$$$$$.&&&&&&&.....++   &&&&&&...     $$$$$&&",
"$$@@@@$$$$$.&&&&&&&.....++  &&&&&&&...    $$$$$$&&",
"$$++++$$$$$.&&&&&&&.....+  &&&&&&&&...    $$$$$$&&",
"@@     ++...&&&&& $$$$$    &&&$$$$$...  &&$$$$$$&&",
"@@      .....     $$$$$    &&&$$$$$...&&&$$$$$$$  ",
"@@        ...     $$$$$    &&$$$$$$...&&&$$$$$$.  ",
"@@@        ..     $$$$$@@@@&$$$$$$$..&&&&$$$$$$...",
"@@@@       .....  $$$$$@@@@ $$$$$$$++&&&&$$$$$$...",
"@@@@       ....&&&&&& @@@@@$$$$$$$$++&&&&$$$$$$...",
"$$$@       ....&&&&&& @@@@$$$$$$$$ ++&&&&$$$$$....",
"$$$@@+     ....&&&&&& @@@$$$$$$$$$ +.&&&&&&&&&&&&.",
"$$$@@++........@@@@@& @@$$$$$$$$$  ........&&&&&&&",
"$$$@@++........@@@@@&  @$$$$$$$$&   .     .&&&&&&&",
"$$$@@+      ...@@@@@    $$$$$$$$@   .     .&&&&&&&",
"@@@@@       ...@@@@@    $$$$$$$@@@  .     +&&&&&&&",
"@@@@@       ...@@@@@    $$$$$@@@@@@       ++&&&&&&",
"        $$$$$++@@@@@       @@@@@@@@  &&&&&..####&&",
"       $$$$$$++@@@@@       @@@@@@@@&&&&&&&########",
"++  $$$$$$$$$+.            ++@@@@@@&&&&&&&########",
"++++$$$$$$$$$@@     +      ++.@@@@@&&&&&&&########",
"+   $$$$$$$$$@@     ++     ++....&&&&&&&&&########",
"    $$$$$$$$$@@&    ......+++....&&&&&&&&#######  ",
"    $$$$$$$@@@@&    .............&&&&&&&######..++",
"     @@@@@@@@@@&   +........@@@@@......     .     ",
"     @@@@@@@&&&& ..+........@@@@@......           ",
"     @@@@@@@&&&&..@@@@@@@.$$$$$$$.       $$$$$    ",
".    @@@@@@@@+    @@@@@@@.$$$$$$$@       $$$$$    ",
".     +@@@@@@     @@@@@@@.$$$$$$$@       $$$$$    ",
".     +@@@@@@@@   @@@@@@@ $$$$$$$@       $$$$$    ",
"$     %@@@@@@@@   @@@@@@@ $$$$$$$@#    + $$$$$   +",
"$     %@@@@@@@@            ##@@@@@#    .+        +",
"$     %%@@@@@@@   .################   ....        ",
"$     %%%@@@@@@&& .################ .......       ",
"$  $$$$$&&&&&&&&&..################..........     ",
"$  $$$$$&&&&&&&&&#############++@@@@@@.......     ",
"   $$$$$&&&&&&&&&######$$$$$##@@@@@@@@$$$$$..     ",
"+++$$$$$&&&&&&&&&###+  $$$$$##@@@@@@@@$$$$$..     "};
